#define circle-15x15-monochrome_width 15
#define circle-15x15-monochrome_height 15
static unsigned char circle-15x15-monochrome_bits[] = {
   0x00, 0x00, 0x00, 0x00, 0x80, 0x03, 0x80, 0x0f, 0x00, 0x0c, 0x00, 0x18,
   0x00, 0x18, 0x0c, 0x18, 0x0c, 0x18, 0x0c, 0x18, 0x18, 0x0c, 0xf8, 0x0f,
   0xe0, 0x03, 0x00, 0x00, 0x00, 0x00};
