<?xml version="1.0" encoding="UTF-8" standalone="no"?>
<!DOCTYPE svg PUBLIC "-//W3C//DTD SVG 1.1//EN" "http://www.w3.org/Graphics/SVG/1.1/DTD/svg11.dtd">
<svg width="100%" height="100%" viewBox="0 0 3508 2481" version="1.1" xmlns="http://www.w3.org/2000/svg" xmlns:xlink="http://www.w3.org/1999/xlink" xml:space="preserve" xmlns:serif="http://www.serif.com/" style="fill-rule:evenodd;clip-rule:evenodd;stroke-linecap:round;stroke-linejoin:round;stroke-miterlimit:1;">
    <g id="logo-colour.afdesign" transform="matrix(0.916781,0,0,0.916781,659.769,659.29)">
        <g transform="matrix(1,0,0,1,-590.551,-590.551)">
            <g>
                <path d="M432.297,230.016C420.568,279.475 411.909,326.393 405.772,371.223C454.639,361.913 503.764,353.264 553.716,346.736C559.004,304.748 562.614,263.114 564.312,221.871C525.34,221.046 481.429,223.694 432.297,230.016" style="fill:rgb(0,104,69);"/>
                <path d="M229.475,431.019C277.53,419.941 328.026,408.477 379.254,397.578C368.393,450.956 360.69,503.626 354.687,555.915C311.064,563.707 266.447,568.769 220.553,569.624C221.037,524.572 222.85,478.933 229.475,431.019Z" style="fill:rgb(0,104,69);"/>
                <path d="M154.743,257.402C158.632,229.182 164.927,200.567 175.635,171.227C205.114,160.541 233.245,154.045 260.482,150.326L241.248,238.488L154.743,257.402" style="fill:rgb(0,104,69);"/>
                <path d="M144.846,281.865C143.31,332.061 147.167,380.299 154.774,427.176L210.644,414.378L237.593,260.844L144.846,281.865" style="fill:rgb(0,104,69);"/>
                <path d="M265.139,234.775L284.034,141.827C332.538,141.156 380.177,144.797 426.687,154.065L414.563,210.565C364.066,216.432 314.393,224.935 265.139,234.775" style="fill:rgb(0,104,69);"/>
                <path d="M260.174,258.09C309.654,246.883 359.808,238.692 410.447,232.674C400.646,279.426 391.24,326.59 382.891,374.854C336.706,384.775 287.307,395.556 233.727,407.454C240.344,354.731 249.349,305.195 260.174,258.09" style="fill:rgb(0,104,69);"/>
                <path d="M436.926,207.934C439.924,190.425 444.799,166.11 449.389,148.724C494.519,162.644 530.686,184.307 556.353,200.413C517.205,200.882 477.476,203.145 436.926,207.934" style="fill:rgb(0,104,69);"/>
                <path d="M575.668,344.056C581.829,291.246 581.973,241.505 583.258,205.275C644.038,249.325 674.196,286.583 685.14,334.266C648.893,335.875 611.086,339.042 575.668,344.056" style="fill:rgb(0,104,69);"/>
                <path d="M152.283,450.789C165.435,490.769 181.922,522.107 199.026,551.843C199.3,513.454 201.92,474.982 208.196,436.378C189.802,439.66 171.177,444.383 152.283,450.789" style="fill:rgb(0,104,69);"/>
                <path d="M401.268,393.473C453.613,382.776 503.721,374.401 551.176,368.779C542.547,429.68 533.048,479.15 523.148,523.341C473.8,535.976 424.841,545.568 376.171,552.887C382.92,498.748 391.32,445.632 401.268,393.473" style="fill:rgb(0,104,69);"/>
                <path d="M217.576,591.649C259.346,589.524 308.442,585.502 350.754,578.256C345.37,612.79 341.258,648.233 336.952,687.171C286.999,660.425 244.372,628.774 217.576,591.649Z" style="fill:rgb(0,104,69);"/>
                <path d="M372.697,575.083C421.252,568.017 469.474,558.19 517.459,546.405C508.664,585.623 498.082,628.038 482.983,678.536C445.18,683.795 403.785,687.386 357.888,688.287C361.968,650.096 366.445,611.933 372.697,575.083" style="fill:rgb(0,104,69);"/>
                <path d="M573.187,364.896C566.072,413.377 558.867,466.018 545.528,518.016C589.264,507.847 635.861,494.605 682.681,478.787C687.334,439.772 688.655,398.897 685.014,355.251C653.902,356.389 616.662,358.59 573.187,364.896Z" style="fill:rgb(0,104,69);"/>
                <path d="M541.14,540.518C530.496,585.742 518.835,630.235 506.462,674.216C550.512,667.717 613.889,652.096 635.425,629.73C657.573,606.728 667.786,557.479 679.154,502.948C638.541,515.64 593.234,528.185 541.14,540.518Z" style="fill:rgb(0,104,69);"/>
            </g>
            <g>
                <path d="M702.82,356.029C750.281,353.651 819.457,437.839 818.369,475.761C772.838,452.576 702.303,474.774 702.185,471.924C705.685,433.559 704.626,399.029 702.82,356.029Z" style="fill:rgb(5,97,66);"/>
                <path d="M704.12,493.669C750.888,480.691 798.12,476.696 833.228,508.472C854.706,527.911 879.851,565.513 857.863,607.446C808.763,564.89 744.799,556.107 685.822,589.453C699.562,552.156 704.358,521.143 704.12,493.669Z" style="fill:rgb(5,97,66);"/>
            </g>
            <g>
                <g transform="matrix(0.0751406,0.997173,0.997173,-0.0751406,-44.2505,33.7742)">
                    <path d="M702.82,356.029C750.281,353.651 819.457,437.839 818.369,475.761C772.838,452.576 702.303,474.774 702.185,471.924C705.685,433.559 704.626,399.029 702.82,356.029Z" style="fill:rgb(5,97,66);"/>
                </g>
                <g transform="matrix(0.0751406,0.997173,0.997173,-0.0751406,-44.2505,33.7742)">
                    <path d="M704.12,493.669C750.888,480.691 798.12,476.696 833.228,508.472C854.706,527.911 879.851,565.513 857.863,607.446C808.763,564.89 744.799,556.107 685.822,589.453C699.562,552.156 704.358,521.143 704.12,493.669Z" style="fill:rgb(5,97,66);"/>
                </g>
            </g>
            <g transform="matrix(1.04126,0,0,1.04126,-20.6121,-41.6826)">
                <path d="M870.521,867.797C862.38,928.242 740.901,1019.85 586.946,1021.38C366.626,1023.57 186.904,848.77 173.316,628.859C170.26,579.404 108.928,580.29 111.22,632.113C122.568,888.657 349.255,1091.56 586.946,1083.56C812.084,1075.98 937.567,947.55 989.047,858.334C942.387,884.581 910.25,882.254 870.521,867.797Z" style="fill:rgb(229,42,26);stroke:rgb(228,42,26);stroke-width:4px;"/>
            </g>
            <g transform="matrix(1.04126,0,0,1.04126,-20.6121,-41.6826)">
                <path d="M1017.93,810.563C1033.8,781.633 1063.33,709.913 1063.33,607.182C1063.33,353.774 865.041,142.589 611.878,131.456C564.081,129.353 560.685,191.039 608.623,193.552C828.652,205.083 1001.14,386.851 1001.14,607.182C1001.14,883.312 773.746,778.365 755.006,680.913C748.242,645.738 704.078,620.186 670.866,623.088C655.785,645.762 638.159,664.952 618.218,678.413C618.465,710.93 637.556,748.416 701.655,760.342C769.16,772.902 809.355,817.493 862.797,845.509C912.642,871.638 987.533,865.993 1017.93,810.563Z" style="fill:rgb(229,42,26);stroke:rgb(228,42,26);stroke-width:4px;"/>
            </g>
            <g transform="matrix(1,0,0,1,-3,-3)">
                <path d="M643.835,664.821C653.424,657.239 672.352,639.646 680.39,626.675C714.132,632.226 738.986,649.188 728.419,681.079C749.447,715.492 793.394,749.901 824.119,778.682C790.352,746.914 760.075,730.484 722.535,717.027C682.595,721.193 644.194,692.346 643.835,664.821Z" style="fill:rgb(255,170,0);stroke:rgb(255,172,0);stroke-width:4.17px;"/>
            </g>
        </g>
    </g>
    <g transform="matrix(1,0,0,1,0,115.159)">
        <text x="1450.04px" y="461.512px" style="font-family:'Futura-Medium', 'Futura', sans-serif;font-weight:500;font-size:416.667px;">Dein T<tspan x="2627.81px 2850.39px 3082.93px " y="461.512px 461.512px 461.512px ">ext</tspan></text>
        <text x="1862.23px" y="890.589px" style="font-family:'Futura-Medium', 'Futura', sans-serif;font-weight:500;font-size:416.667px;">hier?</text>
    </g>
    <g transform="matrix(1,0,0,1,72.9417,-255.04)">
        <text x="164.403px" y="1877.25px" style="font-family:'Futura-Medium', 'Futura', sans-serif;font-weight:500;font-size:150px;">ﬂipdo<tspan x="552.294px 593.31px " y="1877.25px 1877.25px ">t.</tspan>openlab-augsburg.de</text>
    </g>
    <g transform="matrix(1.18166,0,0,1.18166,2798.85,1751.35)">
        <g transform="matrix(1,0,0,1,-500,-500)">
            <rect id="qr-background" serif:id="qr background" x="0" y="0" width="1000" height="1000" style="fill:white;"/>
            <path id="qr-dark-pixels" serif:id="qr dark pixels" d="M354.839,32.258L387.097,32.258L387.097,96.774L354.839,96.774L354.839,32.258ZM419.355,32.258L483.871,32.258L483.871,64.516L516.129,64.516L516.129,32.258L548.387,32.258L548.387,64.516L612.903,64.516L612.903,32.258L709.677,32.258L709.677,96.774L677.419,96.774L677.419,64.516L645.161,64.516L645.161,161.29L709.677,161.29L709.677,193.548L580.645,193.548L580.645,129.032L612.903,129.032L612.903,96.774L580.645,96.774L580.645,129.032L548.387,129.032L548.387,96.774L483.871,96.774L483.871,129.032L451.613,129.032L451.613,161.29L419.355,161.29L419.355,96.774L451.613,96.774L451.613,64.516L419.355,64.516L419.355,32.258ZM290.323,64.516L322.581,64.516L322.581,96.774L290.323,96.774L290.323,64.516ZM290.323,129.032L387.097,129.032L387.097,161.29L354.839,161.29L354.839,225.806L322.581,225.806L322.581,258.065L290.323,258.065L290.323,193.548L322.581,193.548L322.581,161.29L290.323,161.29L290.323,129.032ZM483.871,129.032L516.129,129.032L516.129,161.29L483.871,161.29L483.871,129.032ZM387.097,193.548L451.613,193.548L451.613,258.065L419.355,258.065L419.355,225.806L387.097,225.806L387.097,193.548ZM516.129,193.548L580.645,193.548L580.645,290.323L548.387,290.323L548.387,322.581L516.129,322.581L516.129,290.323L483.871,290.323L483.871,225.806L516.129,225.806L516.129,258.065L548.387,258.065L548.387,225.806L516.129,225.806L516.129,193.548ZM354.839,225.806L387.097,225.806L387.097,258.065L419.355,258.065L419.355,322.581L387.097,322.581L387.097,290.323L354.839,290.323L354.839,322.581L322.581,322.581L322.581,419.355L387.097,419.355L387.097,451.613L354.839,451.613L354.839,516.129L322.581,516.129L322.581,548.387L258.065,548.387L258.065,516.129L225.806,516.129L225.806,548.387L258.065,548.387L258.065,580.645L225.806,580.645L225.806,612.903L193.548,612.903L193.548,483.871L322.581,483.871L322.581,451.613L193.548,451.613L193.548,419.355L161.29,419.355L161.29,387.097L225.806,387.097L225.806,419.355L258.065,419.355L258.065,387.097L290.323,387.097L290.323,322.581L225.806,322.581L225.806,290.323L322.581,290.323L322.581,258.065L354.839,258.065L354.839,225.806ZM612.903,225.806L645.161,225.806L645.161,258.065L612.903,258.065L612.903,225.806ZM677.419,225.806L709.677,225.806L709.677,290.323L677.419,290.323L677.419,225.806ZM32.258,290.323L193.548,290.323L193.548,354.839L96.774,354.839L96.774,322.581L64.516,322.581L64.516,354.839L32.258,354.839L32.258,290.323ZM580.645,290.323L612.903,290.323L612.903,322.581L580.645,322.581L580.645,290.323ZM645.161,290.323L677.419,290.323L677.419,322.581L709.677,322.581L709.677,290.323L741.935,290.323L741.935,322.581L774.194,322.581L774.194,290.323L806.452,290.323L806.452,322.581L838.71,322.581L838.71,387.097L870.968,387.097L870.968,419.355L903.226,419.355L903.226,451.613L838.71,451.613L838.71,419.355L806.452,419.355L806.452,354.839L645.161,354.839L645.161,387.097L612.903,387.097L612.903,322.581L645.161,322.581L645.161,290.323ZM838.71,290.323L870.968,290.323L870.968,322.581L838.71,322.581L838.71,290.323ZM903.226,290.323L935.484,290.323L935.484,322.581L903.226,322.581L903.226,290.323ZM354.839,322.581L387.097,322.581L387.097,387.097L354.839,387.097L354.839,322.581ZM419.355,322.581L516.129,322.581L516.129,354.839L548.387,354.839L548.387,387.097L580.645,387.097L580.645,419.355L548.387,419.355L548.387,451.613L483.871,451.613L483.871,419.355L516.129,419.355L516.129,387.097L483.871,387.097L483.871,419.355L451.613,419.355L451.613,451.613L419.355,451.613L419.355,387.097L451.613,387.097L451.613,354.839L419.355,354.839L419.355,322.581ZM548.387,322.581L580.645,322.581L580.645,354.839L548.387,354.839L548.387,322.581ZM935.484,322.581L967.742,322.581L967.742,354.839L935.484,354.839L935.484,322.581ZM64.516,354.839L96.774,354.839L96.774,387.097L129.032,387.097L129.032,419.355L161.29,419.355L161.29,451.613L96.774,451.613L96.774,483.871L32.258,483.871L32.258,451.613L64.516,451.613L64.516,419.355L32.258,419.355L32.258,387.097L64.516,387.097L64.516,354.839ZM225.806,354.839L258.065,354.839L258.065,387.097L225.806,387.097L225.806,354.839ZM645.161,387.097L741.935,387.097L741.935,419.355L677.419,419.355L677.419,451.613L774.194,451.613L774.194,419.355L806.452,419.355L806.452,451.613L838.71,451.613L838.71,483.871L903.226,483.871L903.226,516.129L774.194,516.129L774.194,548.387L741.935,548.387L741.935,483.871L709.677,483.871L709.677,548.387L677.419,548.387L677.419,483.871L645.161,483.871L645.161,387.097ZM903.226,387.097L935.484,387.097L935.484,419.355L903.226,419.355L903.226,387.097ZM580.645,419.355L612.903,419.355L612.903,451.613L580.645,451.613L580.645,419.355ZM548.387,451.613L580.645,451.613L580.645,483.871L548.387,483.871L548.387,451.613ZM935.484,451.613L967.742,451.613L967.742,483.871L935.484,483.871L935.484,451.613ZM387.097,483.871L451.613,483.871L451.613,516.129L419.355,516.129L419.355,580.645L322.581,580.645L322.581,548.387L354.839,548.387L354.839,516.129L387.097,516.129L387.097,483.871ZM516.129,483.871L548.387,483.871L548.387,516.129L516.129,516.129L516.129,483.871ZM32.258,516.129L64.516,516.129L64.516,548.387L32.258,548.387L32.258,516.129ZM96.774,516.129L161.29,516.129L161.29,612.903L129.032,612.903L129.032,580.645L96.774,580.645L96.774,612.903L64.516,612.903L64.516,709.677L32.258,709.677L32.258,580.645L64.516,580.645L64.516,548.387L96.774,548.387L96.774,516.129ZM483.871,516.129L516.129,516.129L516.129,548.387L483.871,548.387L483.871,516.129ZM548.387,516.129L580.645,516.129L580.645,548.387L548.387,548.387L548.387,516.129ZM903.226,516.129L935.484,516.129L935.484,548.387L903.226,548.387L903.226,516.129ZM580.645,548.387L612.903,548.387L612.903,580.645L580.645,580.645L580.645,548.387ZM838.71,548.387L903.226,548.387L903.226,645.161L870.968,645.161L870.968,580.645L838.71,580.645L838.71,548.387ZM258.065,580.645L322.581,580.645L322.581,612.903L387.097,612.903L387.097,645.161L225.806,645.161L225.806,612.903L258.065,612.903L258.065,580.645ZM419.355,580.645L516.129,580.645L516.129,612.903L612.903,612.903L612.903,645.161L580.645,645.161L580.645,677.419L548.387,677.419L548.387,645.161L483.871,645.161L483.871,677.419L451.613,677.419L451.613,709.677L419.355,709.677L419.355,645.161L451.613,645.161L451.613,612.903L419.355,612.903L419.355,580.645ZM612.903,580.645L709.677,580.645L709.677,612.903L612.903,612.903L612.903,580.645ZM741.935,580.645L838.71,580.645L838.71,645.161L806.452,645.161L806.452,612.903L741.935,612.903L741.935,580.645ZM935.484,580.645L967.742,580.645L967.742,612.903L935.484,612.903L935.484,580.645ZM161.29,612.903L193.548,612.903L193.548,645.161L161.29,645.161L161.29,612.903ZM96.774,645.161L129.032,645.161L129.032,677.419L96.774,677.419L96.774,645.161ZM193.548,645.161L225.806,645.161L225.806,677.419L193.548,677.419L193.548,645.161ZM709.677,645.161L741.935,645.161L741.935,677.419L709.677,677.419L709.677,645.161ZM774.194,645.161L806.452,645.161L806.452,677.419L774.194,677.419L774.194,645.161ZM903.226,645.161L935.484,645.161L935.484,677.419L967.742,677.419L967.742,741.935L903.226,741.935L903.226,774.194L838.71,774.194L838.71,709.677L870.968,709.677L870.968,677.419L903.226,677.419L903.226,645.161ZM129.032,677.419L193.548,677.419L193.548,709.677L129.032,709.677L129.032,677.419ZM225.806,677.419L290.323,677.419L290.323,709.677L225.806,709.677L225.806,677.419ZM322.581,677.419L387.097,677.419L387.097,709.677L322.581,709.677L322.581,677.419ZM483.871,677.419L548.387,677.419L548.387,709.677L483.871,709.677L483.871,677.419ZM580.645,677.419L612.903,677.419L612.903,709.677L580.645,709.677L580.645,677.419ZM290.323,709.677L322.581,709.677L322.581,741.935L354.839,741.935L354.839,806.452L387.097,806.452L387.097,741.935L451.613,741.935L451.613,774.194L419.355,774.194L419.355,838.71L354.839,838.71L354.839,870.968L387.097,870.968L387.097,903.226L354.839,903.226L354.839,967.742L290.323,967.742L290.323,806.452L322.581,806.452L322.581,774.194L290.323,774.194L290.323,709.677ZM548.387,709.677L580.645,709.677L580.645,741.935L548.387,741.935L548.387,709.677ZM645.161,709.677L677.419,709.677L677.419,806.452L645.161,806.452L645.161,774.194L580.645,774.194L580.645,741.935L645.161,741.935L645.161,709.677ZM516.129,741.935L548.387,741.935L548.387,774.194L516.129,774.194L516.129,741.935ZM483.871,774.194L516.129,774.194L516.129,806.452L483.871,806.452L483.871,774.194ZM903.226,774.194L935.484,774.194L935.484,806.452L903.226,806.452L903.226,774.194ZM516.129,806.452L612.903,806.452L612.903,838.71L580.645,838.71L580.645,870.968L612.903,870.968L612.903,838.71L741.935,838.71L741.935,870.968L838.71,870.968L838.71,838.71L870.968,838.71L870.968,806.452L903.226,806.452L903.226,838.71L967.742,838.71L967.742,870.968L935.484,870.968L935.484,935.484L903.226,935.484L903.226,903.226L870.968,903.226L870.968,935.484L838.71,935.484L838.71,903.226L774.194,903.226L774.194,935.484L838.71,935.484L838.71,967.742L709.677,967.742L709.677,935.484L741.935,935.484L741.935,903.226L709.677,903.226L709.677,935.484L677.419,935.484L677.419,903.226L645.161,903.226L645.161,935.484L612.903,935.484L612.903,903.226L580.645,903.226L580.645,935.484L612.903,935.484L612.903,967.742L483.871,967.742L483.871,935.484L516.129,935.484L516.129,903.226L483.871,903.226L483.871,935.484L451.613,935.484L451.613,967.742L419.355,967.742L419.355,903.226L451.613,903.226L451.613,870.968L419.355,870.968L419.355,838.71L516.129,838.71L516.129,870.968L548.387,870.968L548.387,838.71L516.129,838.71L516.129,806.452ZM645.161,935.484L677.419,935.484L677.419,967.742L645.161,967.742L645.161,935.484ZM870.968,935.484L903.226,935.484L903.226,967.742L870.968,967.742L870.968,935.484Z"/>
            <path id="qr-squares" serif:id="qr squares" d="M32.258,32.258L258.065,32.258L258.065,258.065L32.258,258.065L32.258,32.258ZM64.516,64.516L225.806,64.516L225.806,225.806L64.516,225.806L64.516,64.516ZM96.774,96.774L193.548,96.774L193.548,193.548L96.774,193.548L96.774,96.774ZM741.935,32.258L967.742,32.258L967.742,258.065L741.935,258.065L741.935,32.258ZM774.194,64.516L935.484,64.516L935.484,225.806L774.194,225.806L774.194,64.516ZM806.452,96.774L903.226,96.774L903.226,193.548L806.452,193.548L806.452,96.774ZM32.258,741.935L258.065,741.935L258.065,967.742L32.258,967.742L32.258,741.935ZM64.516,774.194L225.806,774.194L225.806,935.484L64.516,935.484L64.516,774.194ZM96.774,806.452L193.548,806.452L193.548,903.226L96.774,903.226L96.774,806.452ZM677.419,677.419L838.71,677.419L838.71,838.71L677.419,838.71L677.419,677.419ZM709.677,709.677L806.452,709.677L806.452,806.452L709.677,806.452L709.677,709.677ZM741.935,741.935L774.194,741.935L774.194,774.194L741.935,774.194L741.935,741.935Z"/>
        </g>
    </g>
    <g transform="matrix(1.3177,0,0,1.3177,-267.998,-692.984)">
        <g transform="matrix(0.758896,-0,-0,0.758896,203.383,525.903)">
            <path d="M1668.17,1831.78L2043.17,1956.78L1668.17,2081.78L1668.17,1831.78Z"/>
            <path d="M359.182,1956.78L1743.17,1956.78" style="fill:none;stroke:black;stroke-width:83.33px;stroke-miterlimit:1.5;"/>
        </g>
    </g>
</svg>
