<?xml version="1.0" encoding="UTF-8" standalone="no"?>
<!DOCTYPE svg PUBLIC "-//W3C//DTD SVG 1.1//EN" "http://www.w3.org/Graphics/SVG/1.1/DTD/svg11.dtd">
<svg width="100%" height="100%" viewBox="0 0 3508 2481" version="1.1" xmlns="http://www.w3.org/2000/svg" xmlns:xlink="http://www.w3.org/1999/xlink" xml:space="preserve" xmlns:serif="http://www.serif.com/" style="fill-rule:evenodd;clip-rule:evenodd;stroke-linecap:round;stroke-linejoin:round;stroke-miterlimit:1;">
    <g id="logo-colour.afdesign" transform="matrix(1.20014,0,0,1.20014,1753.94,816.713)">
        <g transform="matrix(1,0,0,1,-590.551,-590.551)">
            <g>
                <path d="M432.297,230.016C420.568,279.475 411.909,326.393 405.772,371.223C454.639,361.913 503.764,353.264 553.716,346.736C559.004,304.748 562.614,263.114 564.312,221.871C525.34,221.046 481.429,223.694 432.297,230.016" style="fill:rgb(0,104,69);"/>
                <path d="M229.475,431.019C277.53,419.941 328.026,408.477 379.254,397.578C368.393,450.956 360.69,503.626 354.687,555.915C311.064,563.707 266.447,568.769 220.553,569.624C221.037,524.572 222.85,478.933 229.475,431.019Z" style="fill:rgb(0,104,69);"/>
                <path d="M154.743,257.402C158.632,229.182 164.927,200.567 175.635,171.227C205.114,160.541 233.245,154.045 260.482,150.326L241.248,238.488L154.743,257.402" style="fill:rgb(0,104,69);"/>
                <path d="M144.846,281.865C143.31,332.061 147.167,380.299 154.774,427.176L210.644,414.378L237.593,260.844L144.846,281.865" style="fill:rgb(0,104,69);"/>
                <path d="M265.139,234.775L284.034,141.827C332.538,141.156 380.177,144.797 426.687,154.065L414.563,210.565C364.066,216.432 314.393,224.935 265.139,234.775" style="fill:rgb(0,104,69);"/>
                <path d="M260.174,258.09C309.654,246.883 359.808,238.692 410.447,232.674C400.646,279.426 391.24,326.59 382.891,374.854C336.706,384.775 287.307,395.556 233.727,407.454C240.344,354.731 249.349,305.195 260.174,258.09" style="fill:rgb(0,104,69);"/>
                <path d="M436.926,207.934C439.924,190.425 444.799,166.11 449.389,148.724C494.519,162.644 530.686,184.307 556.353,200.413C517.205,200.882 477.476,203.145 436.926,207.934" style="fill:rgb(0,104,69);"/>
                <path d="M575.668,344.056C581.829,291.246 581.973,241.505 583.258,205.275C644.038,249.325 674.196,286.583 685.14,334.266C648.893,335.875 611.086,339.042 575.668,344.056" style="fill:rgb(0,104,69);"/>
                <path d="M152.283,450.789C165.435,490.769 181.922,522.107 199.026,551.843C199.3,513.454 201.92,474.982 208.196,436.378C189.802,439.66 171.177,444.383 152.283,450.789" style="fill:rgb(0,104,69);"/>
                <path d="M401.268,393.473C453.613,382.776 503.721,374.401 551.176,368.779C542.547,429.68 533.048,479.15 523.148,523.341C473.8,535.976 424.841,545.568 376.171,552.887C382.92,498.748 391.32,445.632 401.268,393.473" style="fill:rgb(0,104,69);"/>
                <path d="M217.576,591.649C259.346,589.524 308.442,585.502 350.754,578.256C345.37,612.79 341.258,648.233 336.952,687.171C286.999,660.425 244.372,628.774 217.576,591.649Z" style="fill:rgb(0,104,69);"/>
                <path d="M372.697,575.083C421.252,568.017 469.474,558.19 517.459,546.405C508.664,585.623 498.082,628.038 482.983,678.536C445.18,683.795 403.785,687.386 357.888,688.287C361.968,650.096 366.445,611.933 372.697,575.083" style="fill:rgb(0,104,69);"/>
                <path d="M573.187,364.896C566.072,413.377 558.867,466.018 545.528,518.016C589.264,507.847 635.861,494.605 682.681,478.787C687.334,439.772 688.655,398.897 685.014,355.251C653.902,356.389 616.662,358.59 573.187,364.896Z" style="fill:rgb(0,104,69);"/>
                <path d="M541.14,540.518C530.496,585.742 518.835,630.235 506.462,674.216C550.512,667.717 613.889,652.096 635.425,629.73C657.573,606.728 667.786,557.479 679.154,502.948C638.541,515.64 593.234,528.185 541.14,540.518Z" style="fill:rgb(0,104,69);"/>
            </g>
            <g>
                <path d="M702.82,356.029C750.281,353.651 819.457,437.839 818.369,475.761C772.838,452.576 702.303,474.774 702.185,471.924C705.685,433.559 704.626,399.029 702.82,356.029Z" style="fill:rgb(5,97,66);"/>
                <path d="M704.12,493.669C750.888,480.691 798.12,476.696 833.228,508.472C854.706,527.911 879.851,565.513 857.863,607.446C808.763,564.89 744.799,556.107 685.822,589.453C699.562,552.156 704.358,521.143 704.12,493.669Z" style="fill:rgb(5,97,66);"/>
            </g>
            <g>
                <g transform="matrix(0.0751406,0.997173,0.997173,-0.0751406,-44.2505,33.7742)">
                    <path d="M702.82,356.029C750.281,353.651 819.457,437.839 818.369,475.761C772.838,452.576 702.303,474.774 702.185,471.924C705.685,433.559 704.626,399.029 702.82,356.029Z" style="fill:rgb(5,97,66);"/>
                </g>
                <g transform="matrix(0.0751406,0.997173,0.997173,-0.0751406,-44.2505,33.7742)">
                    <path d="M704.12,493.669C750.888,480.691 798.12,476.696 833.228,508.472C854.706,527.911 879.851,565.513 857.863,607.446C808.763,564.89 744.799,556.107 685.822,589.453C699.562,552.156 704.358,521.143 704.12,493.669Z" style="fill:rgb(5,97,66);"/>
                </g>
            </g>
            <g transform="matrix(1.04126,0,0,1.04126,-20.6121,-41.6826)">
                <path d="M870.521,867.797C862.38,928.242 740.901,1019.85 586.946,1021.38C366.626,1023.57 186.904,848.77 173.316,628.859C170.26,579.404 108.928,580.29 111.22,632.113C122.568,888.657 349.255,1091.56 586.946,1083.56C812.084,1075.98 937.567,947.55 989.047,858.334C942.387,884.581 910.25,882.254 870.521,867.797Z" style="fill:rgb(229,42,26);stroke:rgb(228,42,26);stroke-width:4px;"/>
            </g>
            <g transform="matrix(1.04126,0,0,1.04126,-20.6121,-41.6826)">
                <path d="M1017.93,810.563C1033.8,781.633 1063.33,709.913 1063.33,607.182C1063.33,353.774 865.041,142.589 611.878,131.456C564.081,129.353 560.685,191.039 608.623,193.552C828.652,205.083 1001.14,386.851 1001.14,607.182C1001.14,883.312 773.746,778.365 755.006,680.913C748.242,645.738 704.078,620.186 670.866,623.088C655.785,645.762 638.159,664.952 618.218,678.413C618.465,710.93 637.556,748.416 701.655,760.342C769.16,772.902 809.355,817.493 862.797,845.509C912.642,871.638 987.533,865.993 1017.93,810.563Z" style="fill:rgb(229,42,26);stroke:rgb(228,42,26);stroke-width:4px;"/>
            </g>
            <g transform="matrix(1,0,0,1,-3,-3)">
                <path d="M643.835,664.821C653.424,657.239 672.352,639.646 680.39,626.675C714.132,632.226 738.986,649.188 728.419,681.079C749.447,715.492 793.394,749.901 824.119,778.682C790.352,746.914 760.075,730.484 722.535,717.027C682.595,721.193 644.194,692.346 643.835,664.821Z" style="fill:rgb(255,170,0);stroke:rgb(255,172,0);stroke-width:4.17px;"/>
            </g>
        </g>
    </g>
    <g transform="matrix(1.32375,0,0,1.32375,-197.22,-604.116)">
        <text x="227.361px" y="2013.2px" style="font-family:'Futura-Medium', 'Futura', sans-serif;font-weight:500;font-size:629.523px;">V<tspan x="614.665px 993.054px " y="2013.2px 2013.2px ">or</tspan>st<tspan x="1661.62px 2039.08px " y="2013.2px 2013.2px ">an</tspan>d</text>
    </g>
    <g transform="matrix(1,0,0,1,4.28666,596.082)">
        <text x="757.693px" y="975.642px" style="font-family:'Futura-Medium', 'Futura', sans-serif;font-weight:500;font-size:125px;">Der</text>
    </g>
</svg>
