<?xml version="1.0" encoding="UTF-8" standalone="no"?>
<!-- Created with Inkscape (http://www.inkscape.org/) -->

<svg
   xmlns:dc="http://purl.org/dc/elements/1.1/"
   xmlns:cc="http://creativecommons.org/ns#"
   xmlns:rdf="http://www.w3.org/1999/02/22-rdf-syntax-ns#"
   xmlns:svg="http://www.w3.org/2000/svg"
   xmlns="http://www.w3.org/2000/svg"
   xmlns:sodipodi="http://sodipodi.sourceforge.net/DTD/sodipodi-0.dtd"
   xmlns:inkscape="http://www.inkscape.org/namespaces/inkscape"
   width="285.50357"
   height="285.5"
   id="svg3686"
   version="1.1"
   inkscape:version="0.48.4 r9939"
   sodipodi:docname="Neues Dokument 2">
  <defs
     id="defs3688" />
  <sodipodi:namedview
     id="base"
     pagecolor="#ffffff"
     bordercolor="#666666"
     borderopacity="1.0"
     inkscape:pageopacity="0.0"
     inkscape:pageshadow="2"
     inkscape:zoom="0.35"
     inkscape:cx="-90.105364"
     inkscape:cy="285.60715"
     inkscape:document-units="px"
     inkscape:current-layer="layer1"
     showgrid="false"
     fit-margin-top="0"
     fit-margin-left="0"
     fit-margin-right="0"
     fit-margin-bottom="0"
     inkscape:window-width="533"
     inkscape:window-height="399"
     inkscape:window-x="692"
     inkscape:window-y="343"
     inkscape:window-maximized="0" />
  <metadata
     id="metadata3691">
    <rdf:RDF>
      <cc:Work
         rdf:about="">
        <dc:format>image/svg+xml</dc:format>
        <dc:type
           rdf:resource="http://purl.org/dc/dcmitype/StillImage" />
        <dc:title></dc:title>
      </cc:Work>
    </rdf:RDF>
  </metadata>
  <g
     inkscape:label="Ebene 1"
     inkscape:groupmode="layer"
     id="layer1"
     transform="translate(-440.10536,-532.46933)">
    <path
       style="fill:#333333;fill-opacity:1;stroke:none"
       d="m 582.85892,532.46938 c -0.54289,0 -1.08354,0.0252 -1.625,0.0312 0.93375,0.19011 1.625,1.03973 1.625,2.03125 l 0,38.1875 c 56.60994,0 102.5,45.89006 102.5,102.5 0,56.60993 -45.89006,102.5 -102.5,102.5 -56.60993,0 -102.5,-45.89007 -102.5,-102.5 l -38.21875,0 c -1.06818,0 -1.93475,-0.8016 -2.03125,-1.84375 -0.008,0.61406 0,1.22784 0,1.84375 0,78.84177 63.90823,142.75 142.75,142.75 78.84177,0 142.75,-63.90823 142.75,-142.75 0,-78.84177 -63.90823,-142.75 -142.75,-142.75 z"
       id="path3765"
       inkscape:connector-curvature="0" />
  </g>
</svg>
