<?xml version="1.0" encoding="UTF-8" standalone="no"?>
<!-- Generator: Adobe Illustrator 15.0.2, SVG Export Plug-In . SVG Version: 6.00 Build 0)  -->

<svg
   xmlns:dc="http://purl.org/dc/elements/1.1/"
   xmlns:cc="http://creativecommons.org/ns#"
   xmlns:rdf="http://www.w3.org/1999/02/22-rdf-syntax-ns#"
   xmlns:svg="http://www.w3.org/2000/svg"
   xmlns="http://www.w3.org/2000/svg"
   xmlns:sodipodi="http://sodipodi.sourceforge.net/DTD/sodipodi-0.dtd"
   xmlns:inkscape="http://www.inkscape.org/namespaces/inkscape"
   version="1.0"
   id="Layer_1"
   x="0px"
   y="0px"
   width="297mm"
   height="210mm"
   viewBox="0 0 1052.3622 744.09448"
   enable-background="new 0 0 500 500"
   xml:space="preserve"
   inkscape:version="0.91 r13725"
   sodipodi:docname="reinraum.svg"><metadata
     id="metadata3392"><rdf:RDF><cc:Work
         rdf:about=""><dc:format>image/svg+xml</dc:format><dc:type
           rdf:resource="http://purl.org/dc/dcmitype/StillImage" /><dc:title /></cc:Work></rdf:RDF></metadata><defs
     id="defs3390"><linearGradient
       id="linearGradient1547"><stop
         id="stop1548"
         offset="0.0000000"
         style="stop-color:#000000;stop-opacity:1.0000000" /><stop
         id="stop1549"
         offset="1.0000000"
         style="stop-color:#ffffff;stop-opacity:1.0000000" /></linearGradient></defs><sodipodi:namedview
     pagecolor="#ffffff"
     bordercolor="#666666"
     borderopacity="1"
     objecttolerance="10"
     gridtolerance="10"
     guidetolerance="10"
     inkscape:pageopacity="0"
     inkscape:pageshadow="2"
     inkscape:window-width="1440"
     inkscape:window-height="900"
     id="namedview3388"
     showgrid="false"
     inkscape:zoom="0.66000001"
     inkscape:cx="565.49585"
     inkscape:cy="633.18912"
     inkscape:window-x="0"
     inkscape:window-y="0"
     inkscape:window-maximized="0"
     inkscape:current-layer="g5209"
     showguides="true"
     inkscape:guide-bbox="true"
     units="mm" /><g
     display="none"
     id="g3358"
     style="display:none"
     transform="translate(0,244.09448)"><polygon
       display="inline"
       points="394.479,51.875 300.093,51.875 300.093,148.128 351.953,199.989 447.791,199.989 447.791,104.151 "
       id="polygon3360"
       style="display:inline;fill:#ffffff" /><polygon
       display="inline"
       points="201.075,148.128 201.075,51.875 106.688,51.875 53.376,104.151 53.376,199.989 149.214,199.989 "
       id="polygon3362"
       style="display:inline;fill:#ffffff" /><polygon
       display="inline"
       points="300.093,350.039 300.093,446.292 394.479,446.292 447.791,394.017 447.791,298.179 351.953,298.179 "
       id="polygon3364"
       style="display:inline;fill:#ffffff" /><polygon
       display="inline"
       points="53.376,298.179 53.376,394.017 106.688,446.292 201.075,446.292 201.075,350.039 149.214,298.179 "
       id="polygon3366"
       style="display:inline;fill:#ffffff" /><rect
       x="364.81699"
       y="213.959"
       display="inline"
       width="47.571999"
       height="70.25"
       id="rect3368"
       style="display:inline;fill:#ffffff" /><rect
       x="215.45599"
       y="88.385002"
       display="inline"
       width="70.251999"
       height="47.571999"
       id="rect3370"
       style="display:inline;fill:#ffffff" /><rect
       x="215.45599"
       y="362.207"
       display="inline"
       width="70.251999"
       height="47.575001"
       id="rect3372"
       style="display:inline;fill:#ffffff" /><rect
       x="88.777"
       y="213.959"
       display="inline"
       width="47.571999"
       height="70.25"
       id="rect3374"
       style="display:inline;fill:#ffffff" /><path
       display="inline"
       d="m 250.611,218.724 c -8.304,-16.002 -21.853,-22.523 -32.008,-22.523 -13.613,0 -25.548,9.02 -27.586,25.797 -3.702,30.454 59.552,93.302 59.594,93.244 0.045,0.058 62.463,-62.79 59.597,-93.244 -1.585,-16.822 -13.973,-25.797 -27.586,-25.797 -10.158,-0.001 -23.703,6.52 -32.011,22.523 z"
       id="path3376"
       inkscape:connector-curvature="0"
       style="display:inline;fill:#ffffff" /></g><g
     id="g5050"
     transform="translate(758.28001,139.80458)"><g
       transform="matrix(-0.82042577,0,0,0.82042577,-302.08822,83.316688)"
       id="g3492"><circle
         cx="276.46198"
         cy="81.473297"
         r="40.362"
         id="circle3378"
         style="fill:#000000" /><path
         sodipodi:nodetypes="ccccccccscccccccccccccccscccccccccsc"
         d="m 458.02271,182.49446 c -5.771,-1.735 -13.582,7.298 -13.582,7.298 l -25.22035,28.42055 -80.4504,-113.8732 25.9036,-15.685202 36.2656,25.773802 c 4.38,4.132 11.28,3.934 15.411,-0.448 4.131,-4.379 3.932,-11.279 -0.449,-15.41 l -44.0896,-33.158802 c -4.76768,-3.585663 -11.16,-3.939 -15.311,0.344 l -34.56699,22.766208 -44.04561,47.326994 c -1.481,1.529 -2.483,3.459 -2.88,5.552 l -23.8806,57.4112 -36.069,38.048 c -4.073,4.437 -4.185,12.938 0.259,17.002 4.543,4.154 12.201,3.894 17,-0.91 l 37.118,-40.491 c 1.372,-1.495 2.997,-4.235 3.374,-6.229 l 25.7892,-55.7038 35.2088,70.2398 -6.07348,47.24497 c -0.982,3.837 0.195,7.907 3.075,10.628 l 24.87249,40.74489 c 2.106,1.99 4.797,2.978 7.484,2.978 2.895,0 5.782,-1.146 7.927,-3.414 4.134,-4.378 3.938,-11.277 -0.439,-15.411 l -20.20449,-36.33889 6.66193,-55.63893 17.41285,-12.2141 35.8222,47.50806 c 2.057,1.974 6.619,3.504 11.725,2.108 3.661,-1 6.578,-3.767 7.672,-7.402 l 36.15497,-43.29149 c 0.87718,-2.91686 1.5963,-5.55215 0.0919,-8.58147 -1.46952,-2.95898 -5.11882,-6.33628 -7.96697,-7.19359 z"
         id="path3380"
         style="fill:#119bcf;fill-opacity:1"
         inkscape:connector-curvature="0" /></g><rect
       y="109.11394"
       x="-561.52252"
       height="248.33745"
       width="91.516998"
       id="rect4868"
       style="fill:#ffffff;fill-opacity:1;stroke:none;stroke-width:8.69999981;stroke-linejoin:miter;stroke-miterlimit:4;stroke-dasharray:none;stroke-opacity:1" /><rect
       y="95.689049"
       x="-565.11603"
       height="273.10724"
       width="7.5114713"
       id="rect4064"
       style="fill:#119bcf;fill-opacity:1;stroke:none;stroke-width:8.69999981;stroke-linejoin:miter;stroke-miterlimit:4;stroke-dasharray:none;stroke-opacity:1" /></g><text
     xml:space="preserve"
     style="font-style:normal;font-weight:normal;font-size:40px;line-height:125%;font-family:Sans;letter-spacing:0px;word-spacing:0px;fill:#000000;fill-opacity:1;stroke:none;stroke-width:1px;stroke-linecap:butt;stroke-linejoin:miter;stroke-opacity:1"
     x="175.75758"
     y="510.76114"
     id="text4887"
     sodipodi:linespacing="125%"><tspan
       sodipodi:role="line"
       id="tspan4889"
       x="175.75758"
       y="510.76114" /></text>
<g
     id="g5181"
     transform="translate(0,244.09448)"><g
       id="g5209"
       transform="translate(12,0)"><flowRoot
         transform="matrix(1.7402051,0,0,1.9687937,165.5119,-313.71011)"
         style="font-style:normal;font-variant:normal;font-weight:normal;font-stretch:normal;font-size:40px;line-height:125%;font-family:'Baekmuk Headline';-inkscape-font-specification:'Baekmuk Headline';letter-spacing:0.00540256px;word-spacing:0px;fill:#636467;fill-opacity:1;stroke:none;stroke-width:1px;stroke-linecap:butt;stroke-linejoin:miter;stroke-opacity:1;"
         id="flowRoot4879"
         xml:space="preserve"><flowRegion
           id="flowRegion4881"><rect
             style="font-style:normal;font-variant:normal;font-weight:normal;font-stretch:normal;line-height:125%;font-family:'Baekmuk Headline';-inkscape-font-specification:'Baekmuk Headline';letter-spacing:0.00540256px;fill:#636467;fill-opacity:1;"
             y="189.30156"
             x="29.99847"
             height="81.25843"
             width="406.42606"
             id="rect4883" /></flowRegion><flowPara
           style="font-style:normal;font-variant:normal;font-weight:bold;font-stretch:normal;font-size:80px;line-height:125%;font-family:Carlito;-inkscape-font-specification:'Carlito Bold';letter-spacing:0.00540256px;fill:#636467;fill-opacity:1;"
           id="flowPara4885">REINRAUM</flowPara></flowRoot><g
         transform="matrix(0.91403808,0,0,0.93507878,348.51123,4.0614218)"
         id="g4938"><g
           id="g4940"><path
             style="fill:#636467"
             inkscape:connector-curvature="0"
             d="m 591.343,186.48 0.075,-16.281 42.695,-41.385 0.045,-0.035 c 4.313,-3.586 7.521,-6.813 9.537,-9.598 1.896,-2.619 2.857,-5.326 2.857,-8.051 0,-3.906 -1.246,-6.939 -3.807,-9.273 -2.568,-2.338 -6.032,-3.523 -10.291,-3.523 -4.105,0 -7.473,1.141 -10.293,3.484 -2.736,2.272 -4.066,5.652 -4.066,10.332 l 0,1.5 -26.57,0 0,-1.5 c 0,-7.457 1.822,-14.098 5.42,-19.738 3.591,-5.63 8.582,-10.008 14.837,-13.012 6.202,-2.977 13.155,-4.484 20.674,-4.484 5.688,0 11.05,0.828 15.938,2.461 4.918,1.643 9.274,4.057 12.946,7.172 3.7,3.139 6.619,7.006 8.677,11.492 2.063,4.482 3.106,9.443 3.106,14.746 0,4.48 -1.026,8.71 -3.052,12.568 -1.98,3.771 -4.721,7.468 -8.143,10.983 -3.362,3.456 -7.528,7.282 -12.381,11.373 l -20.296,17.352 46.261,0 0,23.418 -84.169,0 0,-0.001 z"
             id="path4942" /><path
             style="fill:#636467"
             inkscape:connector-curvature="0"
             d="m 632.457,76.416 c 5.555,0 10.71,0.796 15.463,2.384 4.756,1.589 8.906,3.884 12.451,6.894 3.544,3.006 6.307,6.66 8.283,10.974 1.98,4.31 2.971,9.019 2.971,14.121 0,4.254 -0.96,8.214 -2.88,11.871 -1.92,3.659 -4.548,7.204 -7.888,10.636 -3.336,3.431 -7.428,7.188 -12.272,11.271 l -23.394,19.996 48.822,0 0,20.418 -81.163,0 0.065,-14.144 42.202,-40.903 c 4.431,-3.685 7.695,-6.977 9.792,-9.871 2.096,-2.892 3.146,-5.869 3.146,-8.931 0,-4.313 -1.433,-7.772 -4.297,-10.383 -2.865,-2.606 -6.633,-3.915 -11.301,-3.915 -4.428,0 -8.18,1.277 -11.252,3.831 -3.072,2.553 -4.607,6.381 -4.607,11.485 l -23.57,0 c 0,-7.205 1.729,-13.512 5.186,-18.933 3.455,-5.417 8.197,-9.571 14.221,-12.465 6.024,-2.891 12.7,-4.336 20.022,-4.336 m 0,-3 c -7.743,0 -14.917,1.559 -21.323,4.633 -6.511,3.126 -11.709,7.688 -15.452,13.557 -3.754,5.887 -5.654,12.799 -5.654,20.545 l 0,3 3,0 23.57,0 3,0 0,-3 c 0,-4.205 1.152,-7.207 3.523,-9.178 2.541,-2.111 5.594,-3.139 9.335,-3.139 3.928,0 6.964,1.025 9.282,3.134 2.229,2.033 3.314,4.704 3.314,8.164 0,2.435 -0.843,4.779 -2.576,7.17 -1.94,2.683 -5.063,5.819 -9.278,9.324 l -0.089,0.073 -0.082,0.078 -42.201,40.905 -0.906,0.879 -0.006,1.264 -0.064,14.144 -0.015,3.015 3.015,0 81.166,0 3,0 0,-3 0,-20.418 0,-3 -3,0 -40.696,0 17.216,-14.715 c 4.875,-4.108 9.077,-7.972 12.474,-11.461 3.521,-3.621 6.348,-7.435 8.395,-11.334 2.14,-4.074 3.225,-8.537 3.225,-13.266 0,-5.52 -1.091,-10.691 -3.244,-15.374 -2.146,-4.687 -5.199,-8.728 -9.067,-12.009 -3.816,-3.24 -8.341,-5.747 -13.44,-7.45 -5.05,-1.686 -10.572,-2.541 -16.422,-2.541 l 0,0 z"
             id="path4944" /></g></g></g><g
       id="g5431"
       transform="translate(667.85577,-130.04724)"><path
         style="fill:#636467"
         inkscape:connector-curvature="0"
         d="m 212.22684,209.76921 -2.06,0 0,6.535 -2.057,0 0,-6.535 -2.061,0 0,-1.831 6.175,0 0,1.831 0,0 z"
         id="path5258-2" /><path
         style="fill:#636467"
         inkscape:connector-curvature="0"
         d="m 221.22384,216.30421 -2.055,0 0,-4.003 -1.188,2.063 -1.312,0 -1.188,-2.063 0,4.003 -2.056,0 0,-8.366 2.017,0 1.877,3.691 1.885,-3.691 2.019,0 0.001,8.366 0,0 z"
         id="path5260-5" /></g></g></svg>