<?xml version="1.0" encoding="UTF-8" standalone="no"?>
<!-- Created with Inkscape (http://www.inkscape.org/) -->
<svg
   xmlns:svg="http://www.w3.org/2000/svg"
   xmlns="http://www.w3.org/2000/svg"
   version="1.0"
   width="250"
   height="250"
   id="svg2">
  <defs
     id="defs4" />
  <g
     id="layer1">
    <path
       d="M 114.48615,244.22725 C 79.688177,241.07162 46.248587,221.09073 26.773237,191.81685 C 16.215857,175.94779 10.166247,160.46738 7.4306867,142.32101 C 1.7278367,104.49116 14.227367,66.381847 41.251447,39.206244 C 81.757547,-1.5269849 145.81735,-7.7148644 193.28591,24.520419 C 218.47923,41.628881 235.244,66.378945 243.27286,98.316852 C 246.45786,110.98643 246.36309,137.93084 243.08697,151.16648 C 228.22256,211.21934 175.02266,249.71695 114.48615,244.22725 z M 140.61986,157.18094 C 147.66846,154.54372 156.34199,146.33444 160.02249,138.81685 C 162.14459,134.48236 162.47146,132.41927 162.47828,123.31685 C 162.48583,113.24866 162.34521,112.5569 159.05902,106.49592 C 153.45973,96.168712 144.37767,89.490426 132.9512,87.29812 C 124.21922,85.622784 117.76063,87.26996 111.10603,92.869432 L 107.98615,95.494642 L 107.98615,78.905752 L 107.98615,62.316858 L 98.437327,62.316858 L 88.888497,62.316858 L 89.188207,96.566852 C 89.474777,129.31525 89.585687,131.05798 91.717957,136.31685 C 99.400377,155.26418 121.05241,164.50206 140.61986,157.18094 z M 118.48615,138.90521 C 112.66307,136.31712 107.96341,128.77911 108.00811,122.09897 C 108.04096,117.18948 111.29933,110.9425 115.49735,107.74051 C 120.72857,103.75047 129.72036,103.21032 135.45658,106.54154 C 148.07996,113.87237 147.58085,132.53599 134.59664,138.69739 C 130.49821,140.64223 122.62293,140.74381 118.48615,138.90521 z M 53.484797,158.21287 C 55.896167,157.60568 59.654467,155.58068 61.836587,153.71287 C 64.018707,151.84506 66.070037,150.31685 66.395107,150.31685 C 66.720177,150.31685 66.986147,152.34185 66.986147,154.81685 L 66.986147,159.31685 L 75.986147,159.31685 L 84.986147,159.31685 L 84.986147,137.35436 C 84.986147,111.07313 84.202237,107.90461 75.328927,98.320392 C 56.835387,78.345153 26.144937,82.815323 14.651777,107.15822 C 11.895547,112.99599 11.507997,114.86471 11.507997,122.31685 C 11.507997,129.74058 11.898447,131.63988 14.591617,137.31685 C 19.812527,148.32205 28.499887,155.37247 39.986147,157.92635 C 47.107177,159.50966 48.239357,159.53369 53.484797,158.21287 z M 38.488977,138.02018 C 30.242087,133.34959 27.285057,121.89509 32.110017,113.31025 C 41.115807,97.286602 65.986147,103.89884 65.986147,122.31685 C 65.986147,129.29718 62.109017,135.60272 55.785807,138.90613 C 51.581787,141.10241 43.170587,140.67158 38.488977,138.02018 z M 214.52605,157.77636 C 227.02954,154.54462 236.55111,145.27964 240.43375,132.56685 C 241.11235,130.34493 241.00423,130.31685 231.76915,130.31685 C 222.49089,130.31685 222.40377,130.33986 220.68859,133.24343 C 217.12497,139.27616 207.55799,142.65077 200.56332,140.34232 C 193.16097,137.89932 187.06007,129.98735 187.00811,122.76319 C 186.97533,118.20577 191.43444,110.16701 195.53354,107.39378 C 203.27719,102.15484 215.78392,104.47777 220.48615,112.02833 L 222.48615,115.23981 L 231.80354,115.27833 C 241.00239,115.31636 241.11253,115.28823 240.46097,113.06685 C 237.67775,103.57787 229.28754,93.594722 220.48615,89.29965 C 216.21543,87.21554 214.02759,86.856532 205.48615,86.838255 C 196.71229,86.819482 194.78768,87.144259 189.78965,89.48704 C 182.52287,92.893272 175.56257,99.853572 172.15633,107.12035 C 169.84989,112.04085 169.48615,114.11097 169.48615,122.31685 C 169.48615,130.49166 169.85374,132.60081 172.12132,137.43686 C 179.99242,154.22355 196.89841,162.33253 214.52605,157.77636 z "
       style="fill:#000000"
       id="path1317" />
  </g>
</svg>
