<?xml version="1.0" encoding="utf-8"?>
<!-- Generator: Adobe Illustrator 14.0.0, SVG Export Plug-In . SVG Version: 6.00 Build 43363)  -->
<!DOCTYPE svg PUBLIC "-//W3C//DTD SVG 1.1//EN" "http://www.w3.org/Graphics/SVG/1.1/DTD/svg11.dtd">
<svg version="1.1" id="Ebene_1" xmlns="http://www.w3.org/2000/svg" xmlns:xlink="http://www.w3.org/1999/xlink" x="0px" y="0px"
	 width="161px" height="174px" viewBox="0 0 161 174" enable-background="new 0 0 161 174" xml:space="preserve">
<polygon fill="#FFFFFF" points="7.71,6.471 128.152,6.471 128.152,109.822 7.71,109.822 "/>
<g>
	<g>
		<path fill="#E2001A" d="M48.787,88.855h19.82c-0.09,0.105,8.617,20.771,8.617,20.967h18.385
			c0.025,0.055-28.025-63.931-28.151-64.057C67.736,45.55,48.967,88.908,48.787,88.855z M7.71,6.471
			C7.755,6.398,7.854,109.536,7.854,109.68C7.997,109.814,50.923,6.444,50.798,6.471H7.71z M83.599,6.471
			c0,0,44.55,103.595,44.522,103.263c0,0.144,0.03-103.003,0.03-103.263H83.599z"/>
	</g>
</g>
<path d="M18.507,125.988l-9.571,40.964h6.974l1.595-7.666h8.661l1.642,7.666h6.975l-9.572-40.964H18.507z M18.826,152.322
	l3.009-15.332l3.01,15.332H18.826z M49.826,139.271c-1.731-2.281-2.872-3.16-5.288-3.16c-6.929,0-8.843,8.252-8.843,15.859
	c0,8.895,2.598,16.092,8.752,16.092c2.599,0,4.649-1.871,5.607-4.682h0.228l0.183,3.57h5.517v-40.965h-6.154L49.826,139.271
	L49.826,139.271z M46.088,162.152c-3.51,0-4.011-6.202-4.011-10.063c0-8.31,2.325-9.948,4.011-9.948
	c1.642,0,4.012,1.639,4.012,9.948C50.099,156.596,49.462,162.152,46.088,162.152z M70.753,136.111
	c-7.248,0-10.438,6.729-10.438,15.918c0,9.305,3.236,16.033,10.438,16.033c7.156,0,10.438-6.729,10.438-16.033
	C81.191,142.842,77.955,136.111,70.753,136.111z M70.753,162.096c-1.868,0-4.057-1.347-4.057-10.066
	c0-8.543,2.188-9.947,4.057-9.947c2.37,0,4.059,1.872,4.059,9.947C74.811,159.639,73.397,162.096,70.753,162.096z M96.868,136.111
	c-1.549,0-3.966,0.586-5.241,3.513v-13.636h-6.199v40.964h5.516l0.183-3.57h0.184c1.32,3.337,2.917,4.683,5.606,4.683
	c6.519,0,8.843-7.14,8.843-16.094C105.758,142.959,103.387,136.111,96.868,136.111z M95.364,162.096
	c-3.51,0-4.011-6.203-4.011-10.066c0-8.309,2.323-9.947,4.011-9.947c1.641,0,4.012,1.639,4.012,9.947
	C99.376,156.535,98.737,162.096,95.364,162.096z M119.62,136.111c-6.519,0-10.713,5.734-10.713,15.918
	c0,14.63,6.474,16.033,10.257,16.033c3.373,0,8.389-0.701,9.938-9.713h-6.199c-0.593,3.336-2.052,3.746-3.465,3.746
	c-1.732,0-4.148-0.82-4.148-7.843h14.224v-1.64C129.512,138.395,123.723,136.111,119.62,136.111z M115.289,149.279
	c0.046-2.225,0.64-7.198,4.148-7.198c2.051,0,3.51,1.171,3.691,7.198H115.289z M153.146,6.471l-3.527,9.934l-3.563-9.934h-3.602
	v12.624h2.729V9.35l3.418,9.746h1.928l3.455-9.746v9.746h2.728V6.471H153.146z M131.29,8.876h3.892v10.219h2.729V8.876h3.891V6.471
	h-10.51L131.29,8.876L131.29,8.876z"/>
</svg>
