<?xml version="1.0" encoding="UTF-8" standalone="no"?>
<!-- Generator: Adobe Illustrator 15.0.2, SVG Export Plug-In . SVG Version: 6.00 Build 0)  -->

<svg
   xmlns:dc="http://purl.org/dc/elements/1.1/"
   xmlns:cc="http://creativecommons.org/ns#"
   xmlns:rdf="http://www.w3.org/1999/02/22-rdf-syntax-ns#"
   xmlns:svg="http://www.w3.org/2000/svg"
   xmlns="http://www.w3.org/2000/svg"
   xmlns:sodipodi="http://sodipodi.sourceforge.net/DTD/sodipodi-0.dtd"
   xmlns:inkscape="http://www.inkscape.org/namespaces/inkscape"
   version="1.0"
   id="Layer_1"
   x="0px"
   y="0px"
   width="500px"
   height="500px"
   viewBox="0 0 500 500"
   enable-background="new 0 0 500 500"
   xml:space="preserve"
   inkscape:version="0.91 r13725"
   sodipodi:docname="wäscheportal.svg"><metadata
     id="metadata3392"><rdf:RDF><cc:Work
         rdf:about=""><dc:format>image/svg+xml</dc:format><dc:type
           rdf:resource="http://purl.org/dc/dcmitype/StillImage" /><dc:title></dc:title></cc:Work></rdf:RDF></metadata><defs
     id="defs3390"><linearGradient
       id="linearGradient1547"><stop
         id="stop1548"
         offset="0.0000000"
         style="stop-color:#000000;stop-opacity:1.0000000" /><stop
         id="stop1549"
         offset="1.0000000"
         style="stop-color:#ffffff;stop-opacity:1.0000000" /></linearGradient></defs><sodipodi:namedview
     pagecolor="#ffffff"
     bordercolor="#666666"
     borderopacity="1"
     objecttolerance="10"
     gridtolerance="10"
     guidetolerance="10"
     inkscape:pageopacity="0"
     inkscape:pageshadow="2"
     inkscape:window-width="1438"
     inkscape:window-height="877"
     id="namedview3388"
     showgrid="false"
     inkscape:zoom="0.658"
     inkscape:cx="201.10597"
     inkscape:cy="340.41445"
     inkscape:window-x="0"
     inkscape:window-y="0"
     inkscape:window-maximized="0"
     inkscape:current-layer="Layer_1" /><g
     display="none"
     id="g3358"><polygon
       display="inline"
       fill="#FFFFFF"
       points="394.479,51.875 300.093,51.875 300.093,148.128 351.953,199.989 447.791,199.989    447.791,104.151  "
       id="polygon3360" /><polygon
       display="inline"
       fill="#FFFFFF"
       points="201.075,148.128 201.075,51.875 106.688,51.875 53.376,104.151 53.376,199.989    149.214,199.989  "
       id="polygon3362" /><polygon
       display="inline"
       fill="#FFFFFF"
       points="300.093,350.039 300.093,446.292 394.479,446.292 447.791,394.017    447.791,298.179 351.953,298.179  "
       id="polygon3364" /><polygon
       display="inline"
       fill="#FFFFFF"
       points="53.376,298.179 53.376,394.017 106.688,446.292 201.075,446.292 201.075,350.039    149.214,298.179  "
       id="polygon3366" /><rect
       x="364.817"
       y="213.959"
       display="inline"
       fill="#FFFFFF"
       width="47.572"
       height="70.25"
       id="rect3368" /><rect
       x="215.456"
       y="88.385"
       display="inline"
       fill="#FFFFFF"
       width="70.252"
       height="47.572"
       id="rect3370" /><rect
       x="215.456"
       y="362.207"
       display="inline"
       fill="#FFFFFF"
       width="70.252"
       height="47.575"
       id="rect3372" /><rect
       x="88.777"
       y="213.959"
       display="inline"
       fill="#FFFFFF"
       width="47.572"
       height="70.25"
       id="rect3374" /><path
       display="inline"
       fill="#FFFFFF"
       d="M250.611,218.724c-8.304-16.002-21.853-22.523-32.008-22.523   c-13.613,0-25.548,9.02-27.586,25.797c-3.702,30.454,59.552,93.302,59.594,93.244c0.045,0.058,62.463-62.79,59.597-93.244   c-1.585-16.822-13.973-25.797-27.586-25.797C272.464,196.2,258.919,202.721,250.611,218.724z"
       id="path3376" /></g><g
     id="g3492"
     transform="matrix(0.82042577,0,0,0.82042577,6.9763099,36.114789)"><circle
       style="fill:#000000"
       id="circle3378"
       r="40.362"
       cy="85.690323"
       cx="383.51105" /><path
       inkscape:connector-curvature="0"
       style="fill:#000000"
       id="path3380"
       d="m 572.50105,158.44133 c -5.771,-1.735 -11.847,1.533 -13.582,7.298 l -11.347,37.705 -97.122,-94.423 27.756,-28.652003 38.118,35.962003 c 4.38,4.132 11.28,3.934 15.411,-0.448 4.131,-4.379 3.932,-11.279 -0.449,-15.41 l -45.942,-43.347003 c -4.339,-4.094 -11.16,-3.939 -15.311,0.344 l -80.465,83.060003 c -1.481,1.529 -2.483,3.459 -2.88,5.552 l -7.209,37.961 -36.069,38.048 c -4.073,4.437 -4.185,12.938 0.259,17.002 4.543,4.154 12.201,3.894 17,-0.91 l 37.118,-40.491 c 1.372,-1.495 2.997,-4.235 3.374,-6.229 l 6.339,-38.106 54.659,52.642 -10.949,56.996 c -0.982,3.837 0.195,7.907 3.075,10.628 l 56.324,53.21 c 2.106,1.99 4.797,2.978 7.484,2.978 2.895,0 5.782,-1.146 7.927,-3.414 4.134,-4.378 3.938,-11.277 -0.439,-15.411 l -51.656,-48.804 24.653,-73.626 45.343,43.53 c 2.057,1.974 6.619,3.504 11.725,2.108 3.661,-1 6.578,-3.767 7.672,-7.402 l 16.481,-54.769 c 1.734,-5.766 -1.534,-11.847 -7.298,-13.582 z" /></g><path
     d="M 198.85378,331.66989 C 113.11601,331.66989 43.612,345.3989 43.612,362.33495 43.612,379.271 113.11601,393 198.85378,393 c 85.73778,0 155.24261,-13.729 155.24261,-30.66505 0,-16.93605 -69.50483,-30.66506 -155.24261,-30.66506 z m 0,55.58057 c -69.66153,0 -126.133074,-11.15533 -126.133074,-24.91551 0,-13.76019 56.471544,-24.91551 126.133074,-24.91551 69.66154,0 126.1339,11.15532 126.1339,24.91551 0,13.76018 -56.47236,24.91551 -126.1339,24.91551 z"
     id="path3382"
     style="fill:#000000"
     inkscape:connector-curvature="0" /><polygon
     points="281.074,303.143 235.96,303.143 235.96,338.934 205.692,338.934 258.515,418.947 311.34,338.934 281.074,338.934 "
     id="polygon3384"
     transform="matrix(0.82042577,0,0,0.82042577,-10.217776,36.114789)" /><polygon
     points="275.745,307.101 241.288,307.101 241.288,342.856 218.172,342.856 258.515,403.967 298.86,342.856 275.745,342.856 "
     id="polygon3386"
     transform="matrix(0.82042577,0,0,0.82042577,-10.217776,36.114789)"
     style="fill:#ffffff" /><g
     id="g3481"
     transform="matrix(0.48896314,0,0,0.48896314,-47.661363,194.38937)"><g
       id="g3473"><g
         id="g3466"
         transform="translate(318.62171,-176.28733)"><path
           id="text2897"
           style="font-style:normal;font-variant:normal;font-weight:normal;font-stretch:normal;font-size:72px;font-family:'Bitstream Vera Sans';writing-mode:lr-tb;text-anchor:start;fill:#000000;fill-opacity:1;stroke:none;stroke-width:1pt;stroke-linecap:butt;stroke-linejoin:miter;stroke-opacity:1"
           transform="scale(1.255735,1.453502)"
           d="m 132.43826,141.34062 c 3.39841,0.72659 6.04684,2.23831 7.94532,4.53516 1.92183,2.29689 2.88277,5.13283 2.88281,8.50781 -4e-5,5.1797 -1.78129,9.18751 -5.34375,12.02344 -3.56253,2.83594 -8.62503,4.2539 -15.1875,4.2539 -2.20314,0 -4.47658,-0.22265 -6.82031,-0.66796 -2.32033,-0.42188 -4.72267,-1.06641 -7.20704,-1.9336 l 0,-6.85547 c 1.96875,1.14845 4.12499,2.01563 6.46875,2.60157 2.34374,0.58594 4.79296,0.87891 7.34766,0.8789 4.4531,1e-5 7.83982,-0.8789 10.16016,-2.63672 2.34371,-1.7578 3.51559,-4.31248 3.51562,-7.66406 -3e-5,-3.09373 -1.08987,-5.50779 -3.26953,-7.24219 -2.15628,-1.75779 -5.16799,-2.63669 -9.03516,-2.63672 l -6.11718,0 0,-5.83593 6.39843,0 c 3.49217,3e-5 6.16404,-0.69138 8.01563,-2.07422 1.85153,-1.40622 2.77731,-3.42184 2.77734,-6.04688 -3e-5,-2.69527 -0.96097,-4.75777 -2.88281,-6.1875 -1.89846,-1.45308 -4.62893,-2.17964 -8.19141,-2.17968 -1.94533,4e-5 -4.03126,0.21098 -6.25781,0.63281 -2.22657,0.42192 -4.67579,1.07817 -7.34765,1.96875 l 0,-6.32813 c 2.6953,-0.74994 5.21483,-1.31244 7.55859,-1.6875 2.36717,-0.37494 4.59373,-0.56244 6.67969,-0.5625 5.39059,6e-5 9.65622,1.23052 12.79687,3.69141 3.14059,2.43755 4.7109,5.74223 4.71094,9.91406 -4e-5,2.90629 -0.83207,5.36722 -2.49609,7.38281 -1.6641,1.99222 -4.03129,3.37503 -7.10157,4.14844 m 39.51563,-19.51172 c -3.65627,5e-5 -6.41017,1.80474 -8.26172,5.41407 -1.82814,3.58597 -2.7422,8.98831 -2.74219,16.20703 -1e-5,7.19533 0.91405,12.59767 2.74219,16.20703 1.85155,3.58594 4.60545,5.37891 8.26172,5.3789 3.67966,1e-5 6.43356,-1.79296 8.26172,-5.3789 1.85153,-3.60936 2.77731,-9.0117 2.77734,-16.20703 -3e-5,-7.21872 -0.92581,-12.62106 -2.77734,-16.20703 -1.82816,-3.60933 -4.58206,-5.41402 -8.26172,-5.41407 m 0,-5.625 c 5.88278,6e-5 10.37106,2.33209 13.46484,6.9961 3.11715,4.64066 4.67574,11.39066 4.67578,20.25 -4e-5,8.83595 -1.55863,15.58595 -4.67578,20.25 -3.09378,4.64062 -7.58206,6.96093 -13.46484,6.96093 -5.88283,0 -10.38283,-2.32031 -13.5,-6.96093 -3.09376,-4.66405 -4.64063,-11.41405 -4.64063,-20.25 0,-8.85934 1.54687,-15.60934 4.64063,-20.25 3.11717,-4.66401 7.61717,-6.99604 13.5,-6.9961"
           inkscape:connector-curvature="0" /><g
           id="g2806"><path
             id="path629"
             style="fill:none;fill-opacity:1;fill-rule:evenodd;stroke:#000000;stroke-width:12.5;stroke-linecap:butt;stroke-linejoin:miter;stroke-miterlimit:4;stroke-opacity:1"
             d="m 46.352165,145.54748 c 23.458276,0 23.458276,-20.88981 46.916559,-20.88981 23.458256,0 23.458256,20.88981 46.916526,20.88981 23.4583,0 23.4583,-20.88981 46.91655,-20.88981 23.45827,0 23.45827,20.88981 46.91656,20.88981 23.45827,0 23.45827,-20.88981 46.91653,-20.88981 23.45827,0 23.45827,20.88981 46.91655,20.88981"
             inkscape:connector-curvature="0" /><path
             id="path630"
             style="fill:none;fill-opacity:1;fill-rule:evenodd;stroke:#000000;stroke-width:12.5;stroke-linecap:round;stroke-linejoin:round;stroke-miterlimit:4;stroke-dashoffset:0;stroke-opacity:1"
             d="m 37.45635,106.87084 34.397159,171.98579 230.314961,0 35.43307,-171.98579"
             inkscape:connector-curvature="0" /></g><path
           id="path1556"
           style="fill:none;fill-opacity:0.75;fill-rule:evenodd;stroke:#000000;stroke-width:12.71548271;stroke-linecap:round;stroke-linejoin:miter;stroke-miterlimit:4;stroke-opacity:1"
           d="m 76.905082,304.30655 220.818548,0"
           inkscape:connector-curvature="0" /></g></g></g></svg>